<?xml version="1.0" standalone="no"?>
<!DOCTYPE svg PUBLIC "-//W3C//DTD SVG 20010904//EN"
 "http://www.w3.org/TR/2001/REC-SVG-20010904/DTD/svg10.dtd">
<svg version="1.0" xmlns="http://www.w3.org/2000/svg"
 width="412.000000pt" height="414.000000pt" viewBox="0 0 412.000000 414.000000"
 preserveAspectRatio="xMidYMid meet">

<g transform="translate(0.000000,414.000000) scale(0.100000,-0.100000)"
fill="#000000" stroke="none">
<path d="M2381 3900 c-94 -23 -140 -106 -118 -213 l8 -38 -103 6 c-115 8 -274
-6 -409 -35 -447 -97 -834 -401 -1044 -819 -44 -89 -109 -281 -126 -372 -11
-62 -15 -68 -48 -84 -116 -55 -246 -181 -295 -285 -25 -53 -30 -77 -30 -135 0
-113 49 -177 207 -274 49 -29 91 -59 93 -66 7 -17 -18 -100 -44 -151 -27 -52
-85 -106 -149 -138 -97 -48 -103 -91 -25 -177 51 -57 86 -76 267 -149 122 -50
131 -52 199 -47 39 3 82 8 96 12 21 5 29 0 52 -36 44 -67 52 -131 34 -255 -12
-78 -14 -116 -6 -144 36 -133 192 -164 262 -53 20 33 23 50 22 128 -1 56 -7
106 -17 133 -18 47 -17 48 43 27 54 -19 83 -19 122 1 l31 16 -6 -63 c-3 -35
-17 -111 -31 -169 -44 -178 -31 -313 37 -378 62 -60 134 -60 202 -1 74 66 88
196 42 407 l-24 114 21 -5 c163 -38 219 -48 324 -59 245 -24 526 26 776 141
38 17 70 31 72 31 2 0 4 -14 4 -30 0 -39 34 -105 63 -125 66 -43 153 -14 195
65 23 42 24 52 19 166 l-6 122 40 31 c30 25 39 28 39 15 0 -9 15 -31 34 -50
28 -28 42 -34 76 -34 57 0 96 26 122 79 19 40 20 49 10 101 -19 90 -16 136 10
154 29 21 58 3 77 -48 13 -33 12 -46 -2 -109 -21 -87 -22 -186 -3 -230 21 -51
70 -87 118 -87 32 0 47 7 73 33 61 61 70 165 30 337 -42 177 -29 271 50 362
45 53 100 163 120 241 36 143 27 334 -20 428 -37 71 -95 129 -131 129 -25 0
-32 6 -42 34 -7 19 -30 50 -51 69 -25 22 -48 58 -64 98 l-25 62 20 39 c51 98
3 260 -155 523 -116 194 -296 427 -339 441 -12 3 -56 39 -99 79 -135 127 -262
205 -333 205 -13 0 -41 6 -63 14 -52 18 -159 27 -202 16z m121 -46 l38 -7 -30
-34 c-32 -36 -35 -49 -20 -73 8 -12 10 -11 10 6 0 37 44 67 105 72 49 4 65 0
128 -31 40 -20 108 -66 151 -103 l78 -66 -49 -23 c-30 -14 -55 -35 -67 -55
l-19 -34 48 35 c58 41 112 45 169 9 42 -25 127 -123 209 -240 56 -80 56 -80
29 -80 -33 0 -87 -32 -102 -60 -16 -30 -5 -36 21 -11 26 24 77 36 114 27 26
-7 51 -41 116 -161 44 -79 46 -90 22 -77 -55 28 -161 19 -214 -18 -15 -11 -30
-20 -33 -20 -4 0 -25 40 -47 89 -24 53 -48 91 -58 94 -10 2 -21 18 -24 35 -5
23 -25 45 -87 92 -44 33 -80 64 -80 69 0 9 50 35 95 50 29 9 29 9 -13 10 -23
1 -59 -6 -79 -14 -31 -13 -38 -13 -52 -1 -9 8 -20 15 -26 15 -5 1 -10 8 -10
16 0 22 -133 173 -177 203 -21 13 -38 27 -38 30 0 3 10 16 22 29 17 18 18 23
6 23 -9 0 -26 -9 -39 -19 -21 -17 -27 -17 -49 -6 -14 7 -58 23 -97 35 -128 39
-168 85 -128 146 30 45 91 62 177 48z m-55 -301 c73 -36 149 -80 169 -96 20
-17 61 -69 92 -116 33 -50 106 -136 175 -206 109 -110 123 -129 169 -224 28
-57 61 -119 74 -139 53 -77 28 -91 -171 -98 -152 -6 -195 -16 -278 -68 -39
-24 -61 -30 -111 -32 -48 -1 -89 -13 -186 -52 -183 -74 -218 -82 -343 -79
l-107 2 -27 38 -26 37 26 28 c37 38 54 86 62 172 10 116 11 118 50 80 64 -62
157 -59 215 7 28 32 32 41 27 80 -5 50 -28 80 -74 99 -91 39 -203 -21 -203
-109 0 -15 -7 -27 -17 -30 -10 -2 -26 -8 -35 -12 -31 -12 -22 38 12 70 35 34
37 46 11 69 -19 17 -21 17 -48 1 -43 -26 -66 -64 -67 -109 -1 -33 3 -43 20
-50 21 -10 21 -10 -8 -55 -16 -25 -31 -62 -34 -82 l-6 -37 -34 37 c-37 42 -79
66 -143 82 l-44 11 129 126 c112 110 141 145 214 262 46 74 116 173 156 220
83 100 213 240 222 240 4 0 66 -30 139 -67z m-327 -60 l-42 -48 -134 -16
c-150 -19 -297 -61 -419 -119 -326 -156 -583 -452 -687 -792 l-23 -76 -52 -15
c-52 -14 -53 -14 -53 7 0 11 18 75 41 141 72 215 176 381 339 545 266 267 612
414 983 419 l89 1 -42 -47z m-230 -177 c-55 -51 -725 -435 -737 -422 -12 11
363 235 642 383 107 56 118 61 95 39z m-150 -11 c0 -19 -396 -251 -475 -278
-70 -24 212 152 380 237 96 49 95 48 95 41z m204 -27 c-10 -26 -482 -304 -764
-450 -116 -60 -122 -57 -20 9 124 80 769 451 787 453 1 0 0 -6 -3 -12z m1046
-83 c0 -8 -4 -15 -9 -15 -13 0 -22 16 -14 24 11 11 23 6 23 -9z m-1119 -33
c-11 -21 -53 -47 -329 -206 -223 -129 -477 -268 -508 -279 -18 -7 -18 -6 1 9
26 20 321 199 490 296 377 218 363 211 346 180z m-77 -117 c-9 -14 -69 -57
-133 -94 -244 -143 -681 -384 -688 -378 -6 6 809 493 830 496 4 1 0 -10 -9
-24z m1346 -42 c0 -5 -5 -15 -10 -23 -7 -11 -12 -12 -21 -3 -6 6 -8 16 -5 22
8 12 36 15 36 4z m-1200 -53 c0 -6 -11 -21 -25 -33 -15 -12 -27 -35 -29 -52
-4 -40 -20 -38 -24 3 -3 25 3 39 27 62 30 31 51 38 51 20z m-321 -76 c-35 -38
-101 -84 -119 -84 -5 0 -18 -7 -29 -16 -18 -16 -294 -173 -416 -237 -205 -108
-60 -13 365 238 91 54 179 106 195 116 43 26 43 24 4 -17z m1808 14 c11 -13
26 -33 33 -46 11 -22 10 -23 -10 -12 -21 11 -21 11 -7 -17 27 -54 29 -83 7
-128 -34 -71 -125 -101 -345 -115 -150 -10 -174 -14 -358 -64 -89 -25 -103
-26 -151 -15 -72 16 -115 6 -167 -39 -42 -35 -47 -37 -99 -32 l-55 5 117 48
c91 37 130 47 173 47 48 0 70 7 153 51 83 44 102 50 137 46 54 -8 239 10 296
29 55 18 70 43 57 93 -12 41 3 99 29 124 58 51 154 64 190 25z m-1492 -160
c-8 -84 -23 -125 -55 -153 l-23 -20 8 20 c18 46 35 110 35 129 -1 12 -12 -7
-27 -41 -27 -68 -46 -83 -37 -30 11 63 26 99 56 133 45 51 52 45 43 -38z
m-325 6 c82 -18 141 -58 170 -113 11 -22 20 -43 20 -46 0 -3 -37 19 -82 50
-45 30 -84 53 -86 50 -4 -3 51 -55 86 -81 12 -9 9 -12 -18 -17 -56 -12 -129
49 -166 138 -17 41 -17 41 76 19z m-142 -23 c-24 -30 -416 -257 -426 -247 -3
3 -3 7 -1 9 40 29 438 267 447 267 2 0 -7 -13 -20 -29z m115 -114 c50 -50 58
-75 12 -39 -55 43 -128 37 -177 -16 -33 -35 -40 -68 -24 -107 20 -47 52 -65
113 -65 49 0 53 -2 53 -23 0 -52 -153 -80 -190 -35 -15 19 -15 24 -4 36 19 18
18 26 -6 47 -17 15 -23 16 -50 5 -23 -9 -34 -10 -42 -2 -8 8 25 49 118 147
113 120 130 135 139 118 5 -10 32 -40 58 -66z m-261 -45 c-38 -37 -158 -104
-179 -100 -8 2 33 32 93 68 60 36 111 65 113 64 1 -2 -10 -16 -27 -32z m2162
-8 c21 -20 30 -58 22 -89 -5 -21 -3 -25 17 -25 27 0 63 -23 77 -51 8 -14 6
-38 -9 -92 -28 -105 -33 -148 -19 -176 20 -38 35 -36 78 7 28 28 41 51 46 80
23 145 103 46 112 -139 5 -113 -7 -179 -50 -261 -62 -117 -167 -208 -333 -288
-299 -143 -704 -216 -1430 -260 -458 -27 -658 -64 -764 -140 -51 -37 -71 -76
-71 -136 0 -51 -20 -84 -51 -84 -42 0 -131 43 -172 84 -111 107 -96 279 34
401 136 128 320 158 1019 170 793 14 1090 42 1350 129 180 60 308 153 364 264
39 76 34 92 -14 49 -54 -49 -133 -72 -185 -55 -52 18 -77 55 -83 123 l-5 56
-39 -73 c-47 -88 -119 -162 -173 -177 -49 -13 -104 0 -136 33 l-23 24 -41 -43
c-78 -80 -196 -96 -292 -39 l-45 26 -29 -35 c-88 -107 -189 -100 -189 12 0 82
66 151 147 151 27 0 38 9 82 68 90 122 142 219 99 185 -32 -26 -122 -45 -183
-41 l-63 6 -17 -67 c-86 -335 -170 -445 -340 -446 -59 0 -78 4 -116 27 l-47
27 -49 -49 c-90 -90 -173 -76 -173 31 0 77 57 138 137 147 42 4 48 9 98 76 29
39 67 97 85 129 l32 57 -49 -22 c-37 -17 -67 -22 -134 -23 l-86 0 -37 -125
c-61 -209 -135 -340 -206 -370 -43 -18 -116 -7 -147 21 -38 36 -63 93 -63 145
0 53 13 108 77 326 46 156 47 157 72 151 127 -30 150 -102 86 -280 -40 -111
-54 -196 -35 -208 33 -21 116 114 170 276 l31 97 -20 33 c-31 51 -28 104 9
140 25 26 36 30 72 27 39 -3 44 -6 52 -35 9 -28 16 -33 58 -43 104 -22 189 -6
213 40 34 65 108 94 169 65 32 -15 35 -20 29 -48 -18 -98 -78 -197 -206 -339
-54 -59 -97 -109 -97 -112 0 -12 110 -5 151 9 85 30 146 117 203 291 l27 82
-20 33 c-49 79 -7 169 79 169 37 0 42 -3 56 -35 17 -42 41 -50 144 -49 86 0
100 6 132 54 45 67 126 88 180 46 17 -12 17 -17 2 -67 -33 -111 -85 -190 -217
-329 -87 -92 -88 -104 -2 -95 90 11 107 17 146 52 28 26 39 43 39 64 0 73 73
224 155 322 97 116 260 191 309 141z m-1709 -24 c19 0 85 -67 85 -85 0 -8 -7
-15 -15 -15 -33 0 -98 -43 -127 -85 -34 -49 -48 -49 -87 1 -32 41 -28 95 10
139 30 34 81 57 107 49 8 -2 20 -4 27 -4z m470 -117 c-16 -8 -37 -21 -45 -28
-8 -7 -51 -15 -95 -19 -44 -3 -89 -8 -101 -12 -15 -4 -23 1 -31 19 -16 34 -3
38 95 31 50 -3 96 0 132 9 73 19 81 19 45 0z m-1133 -4 c120 -25 217 -101 266
-208 37 -78 42 -203 13 -299 -68 -225 -319 -409 -528 -388 l-62 6 -11 -42
c-53 -205 -100 -287 -191 -333 -59 -30 -161 -34 -212 -9 -43 22 -87 64 -87 83
0 9 27 30 65 50 117 60 172 148 220 351 86 360 119 454 189 523 70 70 152 93
231 63 25 -10 45 -23 45 -29 -1 -7 -19 -24 -41 -40 -71 -49 -107 -131 -150
-342 -16 -77 -29 -144 -29 -149 0 -14 79 3 137 31 134 63 243 241 243 398 0
111 -73 212 -170 235 -257 62 -568 -199 -523 -438 6 -31 14 -65 18 -74 12 -29
-38 -42 -112 -30 -108 18 -153 67 -153 169 0 67 23 124 80 199 141 187 521
323 762 273z m368 -169 c0 -5 -9 -10 -19 -10 -11 0 -23 5 -26 10 -4 6 5 10 19
10 14 0 26 -4 26 -10z m2259 -567 c-13 -21 -42 -64 -66 -96 -48 -66 -69 -125
-78 -224 -6 -66 -2 -96 40 -283 15 -69 6 -139 -18 -141 -41 -4 -77 22 -77 55
0 12 7 49 16 81 44 166 -7 285 -123 285 -50 0 -95 -29 -117 -75 -15 -32 -17
-52 -12 -125 8 -95 -1 -115 -46 -108 -22 3 -23 7 -28 123 -5 123 -19 173 -56
193 -11 6 10 17 81 40 191 63 402 187 470 276 36 47 43 46 14 -1z m-777 -410
c-13 -52 -13 -68 3 -158 19 -115 31 -291 21 -329 -13 -51 -86 -72 -100 -28 -3
9 1 67 9 127 28 209 15 312 -49 380 -18 19 -33 35 -32 36 2 2 131 26 147 28
14 1 15 -4 1 -56z m-1368 -95 c-4 -7 -17 -26 -29 -43 -48 -66 -60 -120 -59
-275 0 -116 6 -174 28 -290 32 -168 32 -253 0 -297 -25 -34 -70 -40 -102 -15
-21 16 -23 26 -23 98 0 52 9 115 26 184 61 242 36 458 -66 566 l-29 30 67 17
c64 16 152 33 181 36 8 1 10 -4 6 -11z m1536 9 c0 -2 -16 -18 -35 -37 l-35
-34 0 31 c0 25 5 33 23 36 32 6 47 7 47 4z m-425 -90 c-11 -8 -63 -37 -115
-65 -147 -79 -195 -93 -97 -28 113 74 173 106 202 106 28 0 28 -1 10 -13z
m-165 -23 c-99 -57 -260 -137 -260 -130 0 8 212 138 238 146 57 17 67 10 22
-16z m-145 -7 c-41 -28 -259 -139 -245 -125 33 33 215 138 239 138 24 0 25 -1
6 -13z m-175 -28 c-87 -49 -196 -102 -185 -91 28 29 192 122 214 122 22 0 16
-6 -29 -31z m-257 1 c-18 -11 -56 -31 -85 -45 -44 -22 -49 -23 -28 -6 28 24
119 71 134 71 6 0 -4 -9 -21 -20z m117 -6 c-63 -37 -166 -88 -158 -79 25 26
157 103 178 104 21 1 18 -3 -20 -25z m756 -79 c-7 -28 -191 -121 -311 -158
-167 -52 -238 -62 -435 -61 -192 1 -266 10 -417 55 l-71 21 -7 50 c-4 27 -4
52 -1 55 3 3 40 -6 83 -20 358 -117 745 -77 1074 112 l84 48 3 -40 c2 -22 1
-50 -2 -62z m-1020 76 c-3 -5 -16 -11 -28 -14 -22 -6 -22 -5 -4 8 22 17 40 20
32 6z m-746 -199 c0 -15 7 -72 16 -127 15 -91 15 -103 1 -137 -14 -32 -21 -38
-47 -38 -40 0 -45 15 -30 96 13 77 16 186 5 233 l-7 33 31 -17 c23 -11 31 -22
31 -43z"/>
<path d="M2382 3498 c-19 -19 -14 -56 8 -68 13 -7 20 -21 20 -38 0 -40 21 -65
51 -60 21 3 24 9 27 52 4 58 -11 92 -50 112 -33 17 -41 17 -56 2z m62 -37 c10
-11 20 -38 23 -60 5 -33 3 -41 -11 -41 -11 0 -16 9 -16 30 0 20 -9 39 -25 54
-24 22 -24 36 0 36 7 0 20 -9 29 -19z"/>
<path d="M2191 3403 c-99 -49 -92 -186 12 -233 74 -34 140 -20 190 39 52 63
27 154 -54 196 -37 20 -106 19 -148 -2z"/>
<path d="M2537 3276 c-4 -9 -14 -12 -27 -9 -45 12 -78 -58 -47 -97 41 -52 115
-65 161 -29 29 23 35 66 10 76 -8 3 -13 12 -10 20 8 19 -29 53 -58 53 -13 0
-26 -6 -29 -14z m42 -52 c-21 -23 -22 -26 -6 -41 13 -14 19 -14 32 -3 8 7 19
10 23 6 10 -10 -36 -46 -58 -46 -33 0 -68 18 -85 43 -17 27 -11 57 12 57 8 0
12 -4 9 -9 -3 -5 1 -15 10 -22 14 -11 18 -10 30 5 7 11 11 23 8 27 -11 18 7
29 28 18 20 -11 20 -11 -3 -35z"/>
<path d="M2019 3177 c-39 -26 -59 -60 -59 -102 0 -36 7 -48 38 -64 24 -13 62
0 62 21 0 7 5 6 15 -2 12 -10 21 -10 40 -2 32 15 44 60 21 78 -11 8 -13 14 -7
19 18 11 12 43 -11 59 -31 22 -59 20 -99 -7z m98 -24 c3 -7 -3 -10 -15 -7 -10
3 -25 -2 -32 -11 -12 -15 -12 -19 5 -31 10 -8 27 -14 37 -14 23 0 23 -12 -1
-34 -17 -16 -19 -15 -35 9 -9 14 -23 25 -32 25 -20 0 -29 -27 -14 -45 10 -12
9 -15 -7 -15 -50 0 -58 62 -13 110 24 26 35 31 66 28 21 -2 39 -8 41 -15z"/>
<path d="M2286 3114 c-60 -50 -66 -66 -40 -115 13 -26 19 -30 42 -24 35 9 52
23 52 45 0 10 7 24 16 31 28 23 36 59 19 85 -8 13 -19 24 -24 24 -5 0 -34 -21
-65 -46z"/>
<path d="M2752 3068 c-22 -22 -13 -66 19 -103 27 -30 37 -35 75 -35 31 0 50 6
64 20 39 39 14 77 -45 66 -32 -6 -36 -4 -46 21 -16 42 -43 55 -67 31z m42 -43
c9 -34 50 -53 77 -37 24 16 29 15 29 -3 0 -37 -81 -42 -113 -7 -24 26 -33 72
-14 72 8 0 18 -11 21 -25z"/>
<path d="M2500 3008 c-164 -85 -90 -308 102 -308 97 0 167 60 175 147 11 134
-149 227 -277 161z"/>
<path d="M1730 2859 c-56 -23 -91 -82 -56 -95 7 -3 39 2 70 11 57 17 57 17 54
53 -3 41 -22 49 -68 31z"/>
<path d="M2844 2826 c-11 -29 2 -51 39 -69 20 -9 37 -22 37 -27 0 -11 39 -13
64 -4 22 8 21 67 -1 86 -10 9 -44 19 -76 23 -46 5 -58 4 -63 -9z"/>
<path d="M2290 2785 c-44 -32 -54 -49 -35 -65 30 -25 125 13 125 50 0 18 -27
41 -47 40 -4 -1 -24 -12 -43 -25z"/>
<path d="M2084 2716 c-62 -27 -93 -96 -58 -130 21 -22 31 -20 50 9 23 36 30
23 8 -15 -24 -40 -10 -64 40 -68 51 -4 69 12 62 57 -2 20 -2 29 0 19 8 -25 34
-30 60 -13 33 21 33 83 2 113 -45 42 -107 52 -164 28z m99 -17 c45 -12 72 -48
63 -84 -8 -30 -32 -33 -39 -5 -6 24 -45 27 -53 5 -3 -8 -1 -28 4 -44 9 -26 8
-31 -9 -36 -10 -4 -28 -4 -39 0 -18 6 -18 8 -3 40 9 18 13 40 10 49 -9 23 -48
20 -54 -4 -6 -23 -26 -22 -31 1 -6 33 49 78 108 88 3 1 22 -4 43 -10z"/>
<path d="M2330 2676 c-18 -18 -11 -45 15 -62 19 -12 40 -15 81 -12 66 6 92 26
77 60 -9 20 -17 23 -86 23 -43 1 -81 -3 -87 -9z m112 -21 c31 6 39 4 36 -6 -9
-27 -108 -33 -124 -8 -11 18 7 29 27 18 12 -6 37 -8 61 -4z"/>
<path d="M1967 2548 c-22 -18 -32 -64 -16 -74 14 -8 72 -7 102 2 10 3 17 15
17 29 0 17 -9 27 -40 39 -48 19 -42 19 -63 4z"/>
<path d="M3372 2446 c-73 -66 -147 -243 -147 -351 0 -50 3 -60 18 -63 26 -5
53 22 98 99 81 136 132 338 87 347 -9 2 -34 -13 -56 -32z"/>
<path d="M2228 1493 c-22 -6 -24 -23 -3 -23 12 0 15 -16 15 -80 0 -64 3 -80
15 -80 12 0 15 15 15 79 0 73 2 79 22 84 12 4 22 5 23 4 21 -56 35 -109 35
-135 0 -55 21 -32 41 43 10 39 21 80 25 93 5 16 2 22 -10 22 -10 0 -20 -16
-28 -47 l-12 -48 -11 45 -11 45 -49 2 c-28 0 -58 -1 -67 -4z"/>
<path d="M1867 1483 c-13 -12 -7 -23 13 -23 18 0 20 -7 20 -85 0 -69 3 -85 15
-85 12 0 15 16 15 85 0 69 3 85 15 85 8 0 15 7 15 15 0 11 -11 15 -43 15 -24
0 -47 -3 -50 -7z"/>
<path d="M1986 1408 c-9 -46 -16 -89 -16 -95 0 -21 27 -15 33 7 3 12 14 20 26
20 14 0 21 -6 21 -20 0 -11 7 -20 15 -20 19 0 19 22 -2 115 -14 66 -19 75 -38
75 -20 0 -24 -9 -39 -82z m45 -41 c-17 -17 -23 -2 -15 39 l7 39 9 -34 c6 -22
6 -37 -1 -44z"/>
<path d="M2104 1476 c-3 -8 -4 -29 -2 -48 2 -28 7 -34 31 -36 23 -3 27 -8 27
-33 0 -31 -17 -40 -26 -14 -10 24 -34 18 -34 -9 0 -28 19 -38 60 -29 53 10 55
99 2 105 -21 2 -27 8 -27 27 0 13 6 26 13 29 6 2 12 -3 12 -12 0 -9 7 -16 15
-16 9 0 15 9 15 25 0 23 -4 25 -40 25 -26 0 -43 -5 -46 -14z"/>
<path d="M1694 1465 c-4 -9 -4 -34 -1 -55 3 -22 1 -43 -4 -46 -5 -3 -9 -23 -9
-44 l0 -38 63 -4 c34 -2 64 -3 67 -2 3 1 4 21 2 43 -3 27 -9 41 -18 41 -8 0
-14 -5 -14 -12 0 -8 -6 -6 -17 5 -16 15 -16 18 1 36 11 12 16 31 14 53 -3 30
-6 33 -41 36 -27 2 -39 -1 -43 -13z m56 -24 c0 -17 -12 -41 -21 -41 -5 0 -9
11 -9 25 0 16 6 25 15 25 8 0 15 -4 15 -9z m-5 -111 c18 -20 17 -20 -8 -20
-20 0 -27 5 -27 20 0 11 4 20 8 20 5 0 17 -9 27 -20z"/>
<path d="M1570 1426 c0 -28 -5 -46 -14 -49 -20 -8 -26 2 -26 45 0 27 -4 38
-15 38 -12 0 -15 -18 -15 -105 0 -85 3 -105 14 -105 11 0 16 14 18 47 2 36 7
49 21 51 14 3 17 -4 17 -43 0 -39 3 -46 18 -43 15 3 17 17 20 106 3 97 2 102
-18 102 -17 0 -20 -6 -20 -44z"/>
<path d="M1391 1436 c-7 -8 -11 -34 -9 -58 3 -39 6 -43 31 -46 22 -3 27 -8 27
-32 0 -33 -17 -49 -26 -26 -11 28 -36 19 -32 -11 3 -25 7 -28 36 -26 49 2 63
19 60 72 -3 44 -4 46 -36 49 -29 3 -33 6 -30 29 3 29 28 45 28 18 0 -10 7 -15
18 -13 11 2 17 12 17 28 0 21 -5 25 -36 28 -22 2 -40 -2 -48 -12z"/>
<path d="M1335 1435 c-5 -2 -22 -6 -37 -9 l-28 -6 0 -111 0 -111 33 7 c41 9
67 23 67 36 0 7 -12 8 -30 4 -29 -6 -30 -5 -30 29 0 29 4 36 20 36 13 0 20 7
20 19 0 14 -5 18 -20 14 -17 -4 -20 0 -20 25 0 23 5 31 25 36 14 4 25 13 25
21 0 15 -5 17 -25 10z"/>
<path d="M1183 1398 l-33 -11 0 -118 c0 -101 2 -118 15 -113 10 4 15 20 15 49
0 58 14 64 29 14 9 -30 16 -39 27 -35 9 3 17 6 20 6 2 0 -3 18 -12 40 -13 31
-14 43 -5 54 7 8 11 37 9 68 -3 58 -11 63 -65 46z m27 -68 c0 -29 -4 -40 -15
-40 -10 0 -15 10 -15 33 0 19 3 37 7 40 15 16 23 5 23 -33z"/>
<path d="M1083 1357 l-43 -21 0 -114 c0 -103 2 -113 18 -110 13 2 18 15 20 56
2 39 8 54 23 62 10 6 19 17 19 26 0 12 -4 12 -20 4 -18 -10 -20 -8 -20 25 0
28 5 38 25 47 14 6 25 19 25 30 0 10 -1 18 -2 17 -2 0 -22 -10 -45 -22z"/>
</g>
</svg>
